<svg xmlns="http://www.w3.org/2000/svg" width="32" height="32" viewBox="0 0 32 32" fill="none">
  <defs>
    <linearGradient id="gradient1" x1="0%" y1="0%" x2="100%" y2="100%">
      <stop offset="0%" style="stop-color:#3b82f6;stop-opacity:1" />
      <stop offset="100%" style="stop-color:#1e40af;stop-opacity:1" />
    </linearGradient>
    <linearGradient id="gradient2" x1="0%" y1="0%" x2="100%" y2="100%">
      <stop offset="0%" style="stop-color:#60a5fa;stop-opacity:1" />
      <stop offset="100%" style="stop-color:#3b82f6;stop-opacity:1" />
    </linearGradient>
  </defs>
  <!-- Shield outline -->
  <path d="M16 3 L26 6 L26 14 C26 21 21 26 16 29 C11 26 6 21 6 14 L6 6 Z" fill="url(#gradient1)" stroke="url(#gradient2)" stroke-width="1"/>
  <!-- Lock body -->
  <rect x="12" y="16" width="8" height="7" rx="1" fill="white" opacity="0.95"/>
  <!-- Lock shackle -->
  <path d="M13 16 L13 13 C13 11.3 14.3 10 16 10 C17.7 10 19 11.3 19 13 L19 16" stroke="white" stroke-width="1.5" fill="none" stroke-linecap="round" opacity="0.95"/>
  <!-- Keyhole -->
  <circle cx="16" cy="19" r="1" fill="url(#gradient1)"/>
  <rect x="15.5" y="19" width="1" height="2" fill="url(#gradient1)"/>
</svg>